<svg width="21" height="21" viewBox="0 0 21 21" fill="none" xmlns="http://www.w3.org/2000/svg">
<path fill-rule="evenodd" clip-rule="evenodd" d="M17.9547 0.148926H3.04521C1.6334 0.148926 0.475586 1.3067 0.475586 2.71855V17.628C0.475586 19.04 1.6334 20.1977 3.04521 20.1977H17.9547C19.3666 20.1977 20.5244 19.04 20.5244 17.6281V2.71855C20.5244 1.3067 19.3666 0.148926 17.9547 0.148926ZM15.054 10.7327C15.1203 11.361 17.3218 12.6778 17.1571 13.6908C17.083 14.1448 16.3212 14.0645 15.6455 14.0858C15.0214 14.106 14.4111 14.0652 14.1348 13.9545C13.6781 13.7717 12.4787 12.1839 12.163 12.246C11.4613 12.3827 11.7154 13.8517 11.5062 13.9545C11.2064 14.1015 10.2335 14.0575 9.8646 14.0196C7.88758 13.6875 6.7415 12.3627 5.65903 10.6682C4.33556 8.5966 3.5527 7.04128 3.88501 6.85637C4.25031 6.6535 5.27301 6.69661 6.31617 6.72438C6.62672 6.73374 7.52942 8.98146 7.76127 9.35466C8.70235 10.8603 8.99699 9.74816 9.01014 9.61713C9.26522 6.91606 8.60399 7.0379 8.22143 6.98757C8.50984 6.11185 10.5206 6.26493 10.5206 6.26493C10.5206 6.26493 11.1932 6.42766 11.4405 6.5934C11.5422 6.6624 11.6563 6.88035 11.6374 7.5798C11.6105 8.63299 11.5036 10.0695 11.9664 10.0766C12.3234 10.0818 12.889 9.24209 13.3462 8.36813C13.7506 7.59488 14.062 6.84522 14.1999 6.79105C14.3493 6.73219 14.9952 6.72814 15.6455 6.72434C16.2823 6.72133 16.9242 6.71603 17.0913 6.85633C17.4281 7.14056 16.8424 8.06251 16.3022 8.82763C15.86 9.4567 15.0066 10.2847 15.054 10.7327Z" fill="#222831"/>
</svg>
