<svg width="21" height="21" viewBox="0 0 21 21" fill="none" xmlns="http://www.w3.org/2000/svg">
<path d="M18.4427 20.1977C13.378 20.1977 8.31323 20.1977 3.2485 20.1977C3.21195 20.1873 3.1754 20.1716 3.13885 20.1612C2.00059 19.9471 1.26437 19.284 0.919763 18.1823C0.877992 18.0465 0.851885 17.9055 0.820557 17.7698C0.820557 12.705 0.820557 7.6403 0.820557 2.57556C0.836221 2.51813 0.851885 2.46591 0.862328 2.40848C1.08685 1.1188 2.21466 0.152842 3.53045 0.152842C8.41244 0.14762 13.2892 0.14762 18.1712 0.152842C19.6488 0.152842 20.8654 1.36942 20.8706 2.84707C20.8759 7.73428 20.8759 12.6215 20.8706 17.5087C20.8706 18.6992 20.0613 19.7487 18.9179 20.0828C18.7612 20.1298 18.6046 20.1612 18.4427 20.1977ZM17.1165 5.88069C17.1113 5.66662 17.0329 5.52564 16.8972 5.42121C16.6674 5.24891 16.4273 5.28546 16.1766 5.37422C12.4277 6.72656 8.67873 8.07889 4.92456 9.43123C4.6896 9.51477 4.57995 9.64531 4.58517 9.83328C4.59039 10.0212 4.71048 10.1466 4.95067 10.2092C5.82264 10.4494 6.69461 10.6896 7.5718 10.9193C7.73366 10.9611 7.8172 11.0342 7.87464 11.2013C8.1827 12.1411 8.52731 13.0705 8.81971 14.0156C8.98679 14.5534 9.48282 14.6317 9.83788 14.261C10.2347 13.8433 10.6733 13.4726 11.0806 13.0705C11.1954 12.9609 11.2633 12.9661 11.3886 13.0496C12.2971 13.6762 13.2161 14.2819 14.1194 14.9137C14.5528 15.2165 15.0697 14.9816 15.1741 14.5064C15.7276 11.9845 16.3072 9.473 16.8763 6.9563C16.9598 6.58036 17.0382 6.20964 17.1165 5.88069Z" fill="#222831"/>
<path d="M8.29197 10.914C8.2763 10.7313 8.39117 10.6686 8.51126 10.6008C9.92104 9.79667 11.3256 8.98736 12.7301 8.18326C13.3515 7.82821 13.9728 7.47316 14.5942 7.1181C14.6464 7.08678 14.6986 7.06067 14.7508 7.045C14.8135 7.02934 14.8657 7.05545 14.897 7.11288C14.9231 7.1651 14.9022 7.21731 14.8657 7.25386C14.8291 7.29041 14.7874 7.32174 14.7456 7.35307C13.0486 8.74195 11.3569 10.1256 9.65475 11.5093C9.51377 11.6242 9.44067 11.7495 9.425 11.9374C9.37801 12.4178 9.31536 12.8929 9.25792 13.3733C9.2527 13.4203 9.26836 13.4934 9.20049 13.5038C9.12739 13.5143 9.12739 13.4464 9.11172 13.3994C8.84543 12.6058 8.57914 11.8069 8.31285 11.0133C8.30241 10.9715 8.29719 10.9297 8.29197 10.914Z" fill="#222831"/>
</svg>
