<svg width="21" height="21" viewBox="0 0 21 21" fill="none" xmlns="http://www.w3.org/2000/svg">
<path d="M10.4809 4.21238C7.22748 4.21238 4.58265 6.85721 4.57818 10.1107C4.57818 11.225 4.89144 12.3124 5.48216 13.2478L5.62089 13.4715L5.0257 15.6465L7.25881 15.0602L7.47362 15.19C8.3776 15.727 9.41584 16.0134 10.4765 16.0134H10.4809C13.7299 16.0134 16.4463 13.3686 16.4463 10.1151C16.4463 8.53988 15.7661 7.05859 14.6518 5.94428C13.533 4.82548 12.0562 4.21238 10.4809 4.21238ZM13.9492 12.6436C13.8015 13.0598 13.0944 13.4357 12.7543 13.4849C12.1904 13.57 11.7519 13.5252 10.6286 13.0419C8.85197 12.2722 7.68842 10.4821 7.59892 10.3657C7.50942 10.2494 6.87394 9.40359 6.87394 8.53093C6.87394 7.65827 7.33041 7.22865 7.49599 7.04964C7.6571 6.87064 7.84953 6.82589 7.97036 6.82589C8.08671 6.82589 8.20754 6.82589 8.31047 6.83036C8.41788 6.83484 8.56556 6.79008 8.70876 7.13467C8.85644 7.48821 9.20998 8.36087 9.25473 8.45037C9.29949 8.53988 9.33081 8.64281 9.26816 8.75916C8.92805 9.43939 8.56556 9.41254 8.74904 9.7258C9.43374 10.9028 10.1184 11.31 11.1612 11.8336C11.3402 11.9231 11.4431 11.9097 11.546 11.7889C11.649 11.6725 11.9891 11.2697 12.1054 11.0952C12.2218 10.9162 12.3426 10.9475 12.5037 11.0057C12.6648 11.0639 13.5375 11.4935 13.7165 11.583C13.8955 11.6725 14.0118 11.7173 14.0566 11.7889C14.0969 11.8739 14.0969 12.2319 13.9492 12.6436ZM18.3572 0.148926H2.60463C1.41871 0.148926 0.456543 1.11109 0.456543 2.29701V18.0496C0.456543 19.2355 1.41871 20.1977 2.60463 20.1977H18.3572C19.5432 20.1977 20.5053 19.2355 20.5053 18.0496V2.29701C20.5053 1.11109 19.5432 0.148926 18.3572 0.148926ZM10.4765 17.2083C9.28606 17.2083 8.11804 16.9085 7.08428 16.3446L3.32065 17.3336L4.32757 13.655C3.70552 12.581 3.37883 11.3592 3.37883 10.1062C3.38331 6.19489 6.56516 3.01304 10.4765 3.01304C12.3739 3.01304 14.1551 3.75144 15.4976 5.09399C16.8357 6.43655 17.6412 8.21766 17.6412 10.1151C17.6412 14.0264 14.3878 17.2083 10.4765 17.2083Z" fill="#222831"/>
</svg>
