<svg width="78" height="81" viewBox="0 0 78 81" fill="none" xmlns="http://www.w3.org/2000/svg">
<rect x="0.679495" y="10.1924" width="69.3085" height="69.3085" fill="#FCDA05" stroke="#FCDA05" stroke-width="1.35899"/>
<path d="M19.1185 27.435C21.4921 27.435 23.8656 27.4515 26.2392 27.4845C28.6458 27.5175 30.9699 27.5999 33.2116 27.7317L33.0632 30.2537H20.1075C18.9537 30.2537 18.0636 30.5668 17.4372 31.1932C16.8109 31.7866 16.4977 32.6932 16.4977 33.9129V61.6046H13.2835V33.369C13.2835 31.6218 13.8274 30.2042 14.9153 29.1163C16.0361 27.9955 17.4372 27.435 19.1185 27.435ZM49.7818 26.8911C51.1664 26.8911 52.3532 26.9241 53.3422 26.99C54.3641 27.0559 55.3036 27.1548 56.1608 27.2867C57.0179 27.4186 57.908 27.5999 58.831 27.8306L58.4354 30.3031C57.4465 30.1712 56.5399 30.0723 55.7157 30.0064C54.9245 29.9405 54.0509 29.891 53.0949 29.8581C52.1718 29.7921 51.0675 29.7592 49.7818 29.7592C47.3423 29.7592 45.4138 30.2372 43.9962 31.1932C42.5787 32.1163 41.5732 33.6492 40.9798 35.792C40.3864 37.9348 40.0897 40.8523 40.0897 44.5446C40.0897 48.2368 40.3864 51.1543 40.9798 53.2971C41.5732 55.4399 42.5787 56.9893 43.9962 57.9454C45.4138 58.8684 47.3423 59.3299 49.7818 59.3299C51.8257 59.3299 53.5564 59.2805 54.974 59.1816C56.3915 59.0827 57.7761 58.9343 59.1277 58.7365L59.5233 61.1596C58.1387 61.5222 56.7047 61.7859 55.2212 61.9508C53.7707 62.1156 51.9576 62.198 49.7818 62.198C46.5841 62.198 44.0127 61.6376 42.0677 60.5167C40.1556 59.3629 38.771 57.5003 37.9139 54.9289C37.0568 52.3576 36.6282 48.8961 36.6282 44.5446C36.6282 40.193 37.0568 36.7315 37.9139 34.1602C38.771 31.5888 40.1556 29.7427 42.0677 28.6218C44.0127 27.468 46.5841 26.8911 49.7818 26.8911Z" fill="#222831"/>
<path d="M73.1935 3.69985H74.5509C74.9125 3.73284 75.273 3.62284 75.5738 3.3877C75.6858 3.26752 75.7729 3.11947 75.8285 2.95464C75.8842 2.78981 75.9069 2.61249 75.8951 2.43598C75.9035 2.25825 75.8798 2.08043 75.8256 1.91393C75.7714 1.74743 75.6879 1.59589 75.5804 1.46902C75.3089 1.21473 74.9644 1.08958 74.6165 1.11881H73.1935V3.69985ZM73.1935 4.78866V8.15394H72.0264V0.00718334H74.6493C75.2955 -0.0431789 75.9362 0.172477 76.459 0.616276C76.6773 0.829649 76.85 1.09876 76.9638 1.40256C77.0776 1.70636 77.1292 2.03659 77.1148 2.36744C77.1243 2.75616 77.0254 3.13808 76.8328 3.45625C76.6198 3.77756 76.3369 4.02718 76.0132 4.17952C76.3648 4.285 76.6691 4.54057 76.8656 4.89522C77.0481 5.26264 77.139 5.68185 77.1279 6.10583V6.77584C77.1252 7.01201 77.1494 7.24754 77.2 7.4763C77.2366 7.67743 77.3287 7.85921 77.4623 7.99403V8.12345H76.2624C76.1213 7.97231 76.0327 7.76656 76.0132 7.54484C75.9774 7.2932 75.9599 7.03851 75.9608 6.78347V6.12865C75.9681 5.94822 75.9446 5.76791 75.8917 5.59804C75.8388 5.42818 75.7575 5.27212 75.6525 5.13886C75.5403 5.01435 75.4075 4.91772 75.262 4.85488C75.1166 4.79204 74.9617 4.76434 74.8067 4.77342L73.1935 4.78866Z" fill="#FCDA05"/>
</svg>
