<svg width="17" height="13" viewBox="0 0 17 13" fill="none" xmlns="http://www.w3.org/2000/svg">
<path d="M8.30302 0.555652L8.30495 0.555647L14.9911 0.539363C14.9912 0.539363 14.9913 0.539363 14.9914 0.539363C15.7248 0.53955 16.3494 1.20976 16.3494 2.15817V10.9979C16.3494 11.95 15.7151 12.633 15.0009 12.633H1.61422C0.900058 12.633 0.265753 11.95 0.265753 10.9979V2.15817C0.265753 1.2061 0.900058 0.523077 1.61422 0.523077H1.61683H1.61748L8.30302 0.555652ZM14.6448 1.77309L15.1477 1.31316L14.4662 1.3146L8.30489 1.32763L8.30375 1.32763L2.32273 1.28855L1.66254 1.28424L2.13798 1.74232L7.83861 7.23483L7.84924 7.24722C7.98449 7.4074 8.15638 7.43465 8.24894 7.43465C8.33231 7.43465 8.50362 7.41576 8.64534 7.26116L8.64545 7.26126L8.65117 7.25459L8.65751 7.24719L8.6649 7.24086L8.66498 7.24096L8.67124 7.23525L14.6448 1.77309ZM1.4881 2.17691L1.04099 1.74491V2.36662V10.9979C1.04099 11.2332 1.10133 11.4313 1.1928 11.5783C1.23815 11.6511 1.29386 11.7156 1.35816 11.7645C1.41843 11.8103 1.5072 11.8578 1.61422 11.8578H15.0009C15.1079 11.8578 15.1966 11.8103 15.2568 11.7647C15.321 11.7161 15.3767 11.6519 15.4223 11.5796C15.5143 11.4337 15.5766 11.2367 15.5806 11.0025L15.5807 11.0025V10.9979V2.55879V1.95968L15.1387 2.36421L9.2108 7.79054L9.2039 7.79686L9.19747 7.80364C8.94944 8.0653 8.61416 8.21315 8.25545 8.21315H8.23794C7.87262 8.20722 7.52927 8.05021 7.28549 7.77934L7.27933 7.7725L7.27271 7.7661L1.4881 2.17691Z" fill="#FCDA05" stroke="black" stroke-width="0.5276"/>
</svg>
