<svg width="14" height="20" viewBox="0 0 14 20" fill="none" xmlns="http://www.w3.org/2000/svg">
<path d="M6.86075 18.8559C6.83128 18.8231 6.7987 18.7867 6.7632 18.7467C6.57717 18.5374 6.31096 18.2324 5.99132 17.8507C5.35178 17.087 4.49954 16.0175 3.64786 14.794C2.79563 13.5698 1.94741 12.1962 1.3131 10.8239C0.67711 9.44796 0.265753 8.09354 0.265753 6.90215C0.265753 3.38504 3.21157 0.518194 6.86075 0.518194C10.5099 0.518194 13.4557 3.38504 13.4557 6.90215C13.4557 8.09354 13.0444 9.44796 12.4084 10.8239C11.7741 12.1962 10.9259 13.5698 10.0736 14.794C9.22195 16.0175 8.36971 17.087 7.73018 17.8507C7.41053 18.2324 7.14433 18.5374 6.95829 18.7467C6.92279 18.7867 6.89021 18.8231 6.86075 18.8559ZM4.14738 6.90215C4.14738 8.36611 5.37072 9.54015 6.86075 9.54015C8.35077 9.54015 9.57411 8.36611 9.57411 6.90215C9.57411 5.43819 8.35077 4.26415 6.86075 4.26415C5.37072 4.26415 4.14738 5.43819 4.14738 6.90215Z" fill="#FCDA05" stroke="black" stroke-width="0.5276"/>
</svg>
