<svg width="14" height="15" viewBox="0 0 14 15" fill="none" xmlns="http://www.w3.org/2000/svg">
<path d="M5.52119 3.72327L5.52127 3.72414C5.52382 3.75238 5.52043 3.78084 5.51132 3.80768C5.50221 3.83452 5.4876 3.85915 5.46842 3.87998C5.10792 4.27096 4.77071 4.7069 4.52607 5.08231C4.40401 5.26962 4.30163 5.44699 4.23085 5.59963C4.19553 5.67582 4.16574 5.75082 4.14578 5.82116C4.12718 5.88667 4.1106 5.96997 4.12084 6.05445C4.13276 6.15432 4.17562 6.2747 4.22896 6.39577C4.28527 6.52357 4.36344 6.67449 4.46175 6.84175C4.65854 7.17657 4.94157 7.58626 5.30637 8.02049C6.03523 8.88809 7.10065 9.86563 8.47337 10.5372L8.54816 10.5738L8.63041 10.5608C8.76953 10.5389 8.93014 10.475 9.08915 10.3973C9.25316 10.3171 9.43515 10.2122 9.62212 10.0933C9.99605 9.8557 10.4028 9.5541 10.7453 9.26145L10.7453 9.26146L10.7472 9.25974C10.7708 9.23919 10.799 9.2247 10.8294 9.21748C10.8597 9.21026 10.8914 9.21053 10.9216 9.21827L10.9216 9.21829L10.9248 9.21907C12.9222 9.70367 13.6371 11.0666 13.6585 11.108C13.6778 11.1462 13.6846 11.1896 13.6778 11.2319L13.6776 11.2325C13.3406 13.3518 11.9713 13.9801 11.9547 13.9876L11.9534 13.9882C11.9079 14.0093 11.8561 14.0123 11.8084 13.9967C11.7184 13.9672 11.6048 13.9358 11.4787 13.901C11.4583 13.8953 11.4375 13.8896 11.4165 13.8838L11.4164 13.8838C10.4163 13.6067 8.41991 13.0533 6.30787 11.4458C4.1985 9.8403 1.95925 7.17174 0.500202 2.64211L0.500068 2.6417C0.488743 2.60674 0.487299 2.56932 0.495891 2.5336C0.498114 2.52486 0.519298 2.44488 0.580699 2.3232C0.645709 2.19437 0.756123 2.01815 0.937922 1.82966C1.29872 1.4556 1.95674 1.01677 3.14342 0.81977L3.14342 0.81978L3.14565 0.819391C3.18441 0.812613 3.22433 0.817964 3.25996 0.834723L3.25995 0.834745L3.26321 0.836226C3.29491 0.850611 3.82665 1.09963 4.36837 1.58883C4.9105 2.0784 5.43985 2.78714 5.52119 3.72327ZM3.37224 0.596011C3.28748 0.55614 3.19248 0.543402 3.10022 0.559532L3.37224 0.596011Z" fill="#FCDA05" stroke="black" stroke-width="0.5276"/>
</svg>
