<svg width="39" height="38" viewBox="0 0 39 38" fill="none" xmlns="http://www.w3.org/2000/svg">
<path d="M34.1247 38C24.5252 38 14.9256 38 5.32598 38C5.25671 37.9802 5.18743 37.9505 5.11816 37.9307C2.96073 37.525 1.56532 36.2681 0.912154 34.18C0.832982 33.9227 0.7835 33.6555 0.724121 33.3981C0.724121 23.7986 0.724121 14.199 0.724121 4.59939C0.753811 4.49053 0.7835 4.39156 0.803293 4.2827C1.22884 1.83827 3.36648 0.00742236 5.86039 0.00742236C15.1136 -0.00247412 24.3569 -0.00247412 33.6101 0.00742236C36.4108 0.00742236 38.7167 2.3133 38.7266 5.11401C38.7365 14.3771 38.7365 23.6402 38.7266 32.9033C38.7266 35.1597 37.1927 37.1489 35.0253 37.7823C34.7284 37.8714 34.4315 37.9307 34.1247 38ZM31.611 10.8639C31.6011 10.4581 31.4527 10.1909 31.1954 9.99297C30.7599 9.66639 30.3047 9.73566 29.8297 9.9039C22.724 12.4671 15.6183 15.0303 8.50276 17.5935C8.05741 17.7518 7.84959 17.9992 7.85948 18.3555C7.86938 18.7118 8.097 18.9493 8.55224 19.068C10.2049 19.5233 11.8577 19.9785 13.5203 20.414C13.8271 20.4931 13.9854 20.6317 14.0943 20.9484C14.6782 22.7297 15.3313 24.4913 15.8855 26.2826C16.2022 27.3019 17.1424 27.4504 17.8153 26.7477C18.5675 25.956 19.3988 25.2533 20.1707 24.4913C20.3884 24.2835 20.5171 24.2934 20.7546 24.4517C22.4766 25.6393 24.2184 26.7873 25.9305 27.9848C26.7519 28.5588 27.7316 28.1134 27.9295 27.2128C28.9786 22.4328 30.0771 17.6726 31.1558 12.9025C31.3141 12.19 31.4626 11.4873 31.611 10.8639Z" fill="#FCDA05"/>
<path d="M14.886 20.4037C14.8563 20.0574 15.0741 19.9386 15.3017 19.8099C17.9737 18.2859 20.6359 16.7519 23.298 15.2279C24.4757 14.5549 25.6534 13.8819 26.8311 13.209C26.93 13.1496 27.029 13.1001 27.128 13.0704C27.2467 13.0407 27.3457 13.0902 27.4051 13.1991C27.4546 13.2981 27.415 13.397 27.3457 13.4663C27.2764 13.5356 27.1972 13.5949 27.1181 13.6543C23.9017 16.2868 20.6953 18.9094 17.469 21.5319C17.2018 21.7496 17.0633 21.9872 17.0336 22.3434C16.9445 23.2539 16.8257 24.1545 16.7169 25.065C16.707 25.154 16.7367 25.2926 16.608 25.3124C16.4695 25.3322 16.4695 25.2035 16.4398 25.1145C15.9351 23.6102 15.4303 22.096 14.9256 20.5918C14.9058 20.5126 14.8959 20.4334 14.886 20.4037Z" fill="#FCDA05"/>
</svg>
