<svg width="39" height="38" viewBox="0 0 39 38" fill="none" xmlns="http://www.w3.org/2000/svg">
<path d="M34.1252 38C24.5256 38 14.9261 38 5.32647 38C5.2572 37.9802 5.18792 37.9505 5.11865 37.9307C2.96121 37.525 1.56581 36.2681 0.912643 34.18C0.833471 33.9227 0.783988 33.6555 0.724609 33.3981C0.724609 23.7986 0.724609 14.199 0.724609 4.59939C0.754299 4.49053 0.783988 4.39156 0.803781 4.2827C1.22933 1.83827 3.36697 0.00742236 5.86088 0.00742236C15.1141 -0.00247412 24.3574 -0.00247412 33.6106 0.00742236C36.4113 0.00742236 38.7172 2.3133 38.7271 5.11401C38.737 14.3771 38.737 23.6402 38.7271 32.9033C38.7271 35.1597 37.1931 37.1489 35.0258 37.7823C34.7289 37.8714 34.432 37.9307 34.1252 38ZM31.6115 10.8639C31.6016 10.4581 31.4532 10.1909 31.1959 9.99297C30.7604 9.66639 30.3052 9.73566 29.8302 9.9039C22.7245 12.4671 15.6188 15.0303 8.50324 17.5935C8.0579 17.7518 7.85008 17.9992 7.85997 18.3555C7.86987 18.7118 8.09749 18.9493 8.55273 19.068C10.2054 19.5233 11.8581 19.9785 13.5208 20.414C13.8275 20.4931 13.9859 20.6317 14.0948 20.9484C14.6786 22.7297 15.3318 24.4913 15.886 26.2826C16.2027 27.3019 17.1429 27.4504 17.8158 26.7477C18.568 25.956 19.3993 25.2533 20.1712 24.4913C20.3889 24.2835 20.5176 24.2934 20.7551 24.4517C22.4771 25.6393 24.2189 26.7873 25.9309 27.9848C26.7524 28.5588 27.7321 28.1134 27.93 27.2128C28.9791 22.4328 30.0776 17.6726 31.1563 12.9025C31.3146 12.19 31.4631 11.4873 31.6115 10.8639Z" fill="#FCDA05"/>
<path d="M14.8865 20.4038C14.8568 20.0574 15.0745 19.9387 15.3022 19.81C17.9742 18.2859 20.6364 16.752 23.2985 15.2279C24.4762 14.555 25.6539 13.882 26.8316 13.209C26.9305 13.1497 27.0295 13.1002 27.1285 13.0705C27.2472 13.0408 27.3462 13.0903 27.4056 13.1992C27.455 13.2981 27.4155 13.3971 27.3462 13.4664C27.2769 13.5356 27.1977 13.595 27.1186 13.6544C23.9022 16.2869 20.6957 18.9094 17.4695 21.532C17.2023 21.7497 17.0637 21.9872 17.0341 22.3435C16.945 23.254 16.8262 24.1546 16.7174 25.065C16.7075 25.1541 16.7372 25.2926 16.6085 25.3124C16.47 25.3322 16.47 25.2036 16.4403 25.1145C15.9355 23.6102 15.4308 22.0961 14.9261 20.5918C14.9063 20.5127 14.8964 20.4335 14.8865 20.4038Z" fill="#FCDA05"/>
</svg>
