<svg width="38" height="38" viewBox="0 0 38 38" fill="none" xmlns="http://www.w3.org/2000/svg">
<path fill-rule="evenodd" clip-rule="evenodd" d="M33.1295 0H4.87041C2.1945 0 0 2.19442 0 4.87041V33.1295C0 35.8057 2.1945 38 4.87041 38H33.1295C35.8056 38 38 35.8057 38 33.1296V4.87041C38 2.19442 35.8056 0 33.1295 0ZM27.6315 20.0603C27.7573 21.2512 31.9299 23.747 31.6178 25.667C31.4774 26.5274 30.0335 26.3752 28.7527 26.4157C27.5699 26.4539 26.4131 26.3767 25.8893 26.1667C25.0237 25.8204 22.7505 22.8108 22.152 22.9286C20.8221 23.1875 21.3037 25.972 20.9071 26.1667C20.339 26.4453 18.495 26.362 17.7957 26.2902C14.0485 25.6608 11.8763 23.1497 9.82458 19.938C7.31611 16.0115 5.83229 13.0636 6.46214 12.7131C7.15453 12.3286 9.09292 12.4103 11.0701 12.463C11.6587 12.4807 13.3697 16.741 13.8091 17.4483C15.5928 20.3021 16.1513 18.1942 16.1762 17.9458C16.6597 12.8263 15.4064 13.0572 14.6813 12.9618C15.2279 11.302 19.039 11.5921 19.039 11.5921C19.039 11.5921 20.314 11.9006 20.7827 12.2147C20.9754 12.3455 21.1916 12.7586 21.1558 14.0843C21.1049 16.0805 20.9022 18.8033 21.7795 18.8167C22.4561 18.8265 23.5281 17.235 24.3947 15.5785C25.1612 14.1129 25.7514 12.692 26.0127 12.5893C26.2958 12.4778 27.5201 12.4701 28.7526 12.4629C29.9596 12.4572 31.1763 12.4471 31.4931 12.7131C32.1315 13.2518 31.0213 14.9992 29.9974 16.4494C29.1593 17.6417 27.5417 19.2111 27.6315 20.0603Z" fill="#FCDA05"/>
</svg>
