<svg width="38" height="38" viewBox="0 0 38 38" fill="none" xmlns="http://www.w3.org/2000/svg">
<path d="M19 7.70179C12.8335 7.70179 7.82054 12.7147 7.81205 18.8813C7.81205 20.9933 8.4058 23.0545 9.52545 24.8272L9.78839 25.2513L8.66027 29.3737L12.8929 28.2625L13.3 28.5085C15.0134 29.5263 16.9812 30.0692 18.9915 30.0692H19C25.158 30.0692 30.3067 25.0562 30.3067 18.8897C30.3067 15.904 29.0174 13.0964 26.9054 10.9844C24.7848 8.86384 21.9857 7.70179 19 7.70179ZM25.5737 23.6821C25.2937 24.471 23.9536 25.1835 23.3089 25.2768C22.2402 25.4379 21.4089 25.3531 19.2799 24.4371C15.9125 22.9781 13.7071 19.5853 13.5375 19.3647C13.3679 19.1442 12.1634 17.5411 12.1634 15.8871C12.1634 14.233 13.0286 13.4187 13.3424 13.0795C13.6478 12.7402 14.0125 12.6554 14.2415 12.6554C14.4621 12.6554 14.6911 12.6554 14.8862 12.6638C15.0897 12.6723 15.3696 12.5875 15.6411 13.2406C15.921 13.9107 16.5911 15.5647 16.6759 15.7344C16.7607 15.904 16.8201 16.0991 16.7013 16.3196C16.0567 17.6089 15.3696 17.558 15.7174 18.1518C17.0152 20.3826 18.3129 21.1545 20.2893 22.1469C20.6286 22.3165 20.8237 22.2911 21.0187 22.0621C21.2138 21.8415 21.8585 21.0781 22.079 20.7473C22.2996 20.408 22.5286 20.4674 22.8339 20.5777C23.1393 20.6879 24.7933 21.5022 25.1326 21.6719C25.4719 21.8415 25.6924 21.9263 25.7772 22.0621C25.8536 22.2232 25.8536 22.9018 25.5737 23.6821ZM33.9286 0H4.07143C1.82366 0 0 1.82366 0 4.07143V33.9286C0 36.1763 1.82366 38 4.07143 38H33.9286C36.1763 38 38 36.1763 38 33.9286V4.07143C38 1.82366 36.1763 0 33.9286 0ZM18.9915 32.3339C16.7353 32.3339 14.5214 31.7656 12.5621 30.6969L5.42857 32.5714L7.33705 25.5991C6.15804 23.5634 5.53884 21.2478 5.53884 18.8728C5.54732 11.4594 11.5781 5.42857 18.9915 5.42857C22.5879 5.42857 25.9638 6.82812 28.5085 9.37277C31.0446 11.9174 32.5714 15.2933 32.5714 18.8897C32.5714 26.3031 26.4049 32.3339 18.9915 32.3339Z" fill="#FCDA05"/>
</svg>
